<?xml version="1.0" standalone="no"?>
<!DOCTYPE svg PUBLIC "-//W3C//DTD SVG 20010904//EN"
 "http://www.w3.org/TR/2001/REC-SVG-20010904/DTD/svg10.dtd">
<svg version="1.0" xmlns="http://www.w3.org/2000/svg"
 width="296.000000pt" height="72.000000pt" viewBox="0 0 296.000000 72.000000"
 preserveAspectRatio="xMidYMid meet">

<g transform="translate(0.000000,72.000000) scale(0.100000,-0.100000)"
fill="#000000" stroke="none">
<path d="M1810 650 l0 -70 -205 0 -205 0 0 -210 0 -210 -700 0 c-460 0 -700
-3 -700 -10 0 -7 240 -10 700 -10 l700 0 0 -70 c0 -40 4 -70 10 -70 6 0 10 30
10 70 l0 70 205 0 205 0 0 210 0 210 565 0 c370 0 565 3 565 10 0 7 -195 10
-565 10 l-565 0 0 70 c0 40 -4 70 -10 70 -6 0 -10 -30 -10 -70z m0 -290 l0
-200 -195 0 -195 0 0 200 0 200 195 0 195 0 0 -200z"/>
<path d="M114 453 c-34 -24 -16 -71 37 -98 33 -18 39 -51 9 -60 -10 -3 -28 -1
-39 4 -13 7 -22 8 -26 1 -9 -15 40 -33 70 -26 30 8 47 43 33 69 -5 10 -25 28
-44 39 -47 28 -42 53 11 54 22 0 40 5 40 10 0 11 -76 17 -91 7z"/>
<path d="M1960 370 c0 -73 3 -90 15 -90 10 0 15 10 15 29 0 23 5 30 29 34 37
8 61 32 61 62 0 36 -26 55 -76 55 l-44 0 0 -90z m88 41 c3 -15 -3 -30 -14 -38
-32 -23 -44 -16 -44 28 0 38 1 40 28 37 20 -2 28 -9 30 -27z"/>
<path d="M319 389 c-34 -34 -22 -76 31 -116 54 -40 69 -47 77 -39 3 3 -5 14
-18 25 -13 11 -19 20 -12 21 41 1 58 83 25 113 -26 23 -78 21 -103 -4z m94
-20 c29 -47 -32 -101 -73 -64 -23 20 -25 37 -9 66 13 24 66 23 82 -2z"/>
<path d="M540 371 c0 -84 42 -122 95 -87 22 14 25 24 25 71 0 70 -18 72 -22 4
-3 -55 -21 -78 -52 -66 -12 5 -16 20 -16 62 0 42 -3 55 -15 55 -11 0 -15 -11
-15 -39z"/>
<path d="M791 368 c-27 -64 -33 -88 -23 -88 6 0 12 7 16 15 8 21 56 19 72 -2
23 -33 24 -7 1 52 -12 32 -28 60 -35 63 -7 2 -20 -15 -31 -40z m39 3 c0 -5 3
-16 6 -25 4 -12 0 -16 -16 -16 -16 0 -20 4 -16 16 3 9 6 20 6 25 0 5 5 9 10 9
6 0 10 -4 10 -9z"/>
<path d="M980 345 c0 -37 4 -65 10 -65 6 0 10 11 10 25 0 14 6 25 13 25 8 0
19 -11 25 -25 6 -14 19 -25 27 -25 14 0 15 2 1 21 -13 19 -13 24 0 45 24 36 4
64 -46 64 l-40 0 0 -65z m70 25 c0 -15 -7 -20 -25 -20 -18 0 -25 5 -25 20 0
15 7 20 25 20 18 0 25 -5 25 -20z"/>
<path d="M1180 345 l0 -65 48 1 c44 2 45 2 12 8 -43 7 -51 43 -10 50 l25 4
-25 6 c-14 4 -26 15 -28 24 -3 13 4 17 27 17 16 0 33 5 36 10 4 6 -12 10 -39
10 l-46 0 0 -65z"/>
<path d="M2192 394 c-18 -12 -22 -24 -20 -51 8 -94 138 -92 138 1 0 59 -66 87
-118 50z m91 -25 c16 -26 0 -68 -29 -75 -46 -12 -85 51 -52 84 17 17 68 11 81
-9z"/>
<path d="M2420 345 c0 -37 4 -65 10 -65 6 0 10 28 10 65 0 37 -4 65 -10 65 -6
0 -10 -28 -10 -65z"/>
<path d="M2560 345 c0 -74 17 -89 22 -19 l3 45 38 -50 c20 -28 42 -51 47 -51
6 0 10 31 10 70 0 40 -4 70 -10 70 -5 0 -10 -21 -10 -47 l-1 -48 -42 48 c-23
26 -45 47 -49 47 -5 0 -8 -29 -8 -65z"/>
<path d="M2770 400 c0 -5 11 -10 25 -10 24 0 25 -3 25 -55 0 -30 5 -55 10 -55
6 0 10 25 10 55 0 52 1 55 25 55 14 0 25 5 25 10 0 6 -27 10 -60 10 -33 0 -60
-4 -60 -10z"/>
</g>
</svg>
